<svg width="44" height="46" viewBox="0 0 44 46" fill="none" xmlns="http://www.w3.org/2000/svg">
<path d="M32.0837 12.3044H32.102M12.8337 3.86523H31.167C36.2296 3.86523 40.3337 8.0634 40.3337 13.2421V31.9958C40.3337 37.1745 36.2296 41.3727 31.167 41.3727H12.8337C7.77105 41.3727 3.66699 37.1745 3.66699 31.9958V13.2421C3.66699 8.0634 7.77105 3.86523 12.8337 3.86523ZM29.3337 21.4375C29.5599 22.9982 29.2993 24.5923 28.5889 25.9928C27.8785 27.3933 26.7544 28.529 25.3766 29.2384C23.9989 29.9478 22.4375 30.1947 20.9146 29.944C19.3917 29.6934 17.9849 28.9579 16.8942 27.8422C15.8035 26.7265 15.0845 25.2874 14.8394 23.7296C14.5944 22.1718 14.8358 20.5746 15.5293 19.1652C16.2227 17.7558 17.333 16.606 18.7021 15.8793C20.0713 15.1526 21.6295 14.886 23.1553 15.1175C24.7117 15.3536 26.1526 16.0954 27.2651 17.2335C28.3776 18.3715 29.1029 19.8454 29.3337 21.4375Z" stroke="#268F47" stroke-width="4" stroke-linecap="round" stroke-linejoin="round"/>
</svg>
